%TF.GenerationSoftware,KiCad,Pcbnew,8.0.1*%
%TF.CreationDate,2024-05-04T10:24:30-07:00*%
%TF.ProjectId,schematic,73636865-6d61-4746-9963-2e6b69636164,rev?*%
%TF.SameCoordinates,Original*%
%TF.FileFunction,Paste,Top*%
%TF.FilePolarity,Positive*%
%FSLAX46Y46*%
G04 Gerber Fmt 4.6, Leading zero omitted, Abs format (unit mm)*
G04 Created by KiCad (PCBNEW 8.0.1) date 2024-05-04 10:24:30*
%MOMM*%
%LPD*%
G01*
G04 APERTURE LIST*
G04 Aperture macros list*
%AMRoundRect*
0 Rectangle with rounded corners*
0 $1 Rounding radius*
0 $2 $3 $4 $5 $6 $7 $8 $9 X,Y pos of 4 corners*
0 Add a 4 corners polygon primitive as box body*
4,1,4,$2,$3,$4,$5,$6,$7,$8,$9,$2,$3,0*
0 Add four circle primitives for the rounded corners*
1,1,$1+$1,$2,$3*
1,1,$1+$1,$4,$5*
1,1,$1+$1,$6,$7*
1,1,$1+$1,$8,$9*
0 Add four rect primitives between the rounded corners*
20,1,$1+$1,$2,$3,$4,$5,0*
20,1,$1+$1,$4,$5,$6,$7,0*
20,1,$1+$1,$6,$7,$8,$9,0*
20,1,$1+$1,$8,$9,$2,$3,0*%
G04 Aperture macros list end*
%ADD10C,0.010000*%
%ADD11RoundRect,0.250000X0.475000X-0.250000X0.475000X0.250000X-0.475000X0.250000X-0.475000X-0.250000X0*%
%ADD12RoundRect,0.175000X-0.175000X-0.325000X0.175000X-0.325000X0.175000X0.325000X-0.175000X0.325000X0*%
%ADD13RoundRect,0.150000X-0.200000X-0.150000X0.200000X-0.150000X0.200000X0.150000X-0.200000X0.150000X0*%
%ADD14RoundRect,0.243750X0.243750X0.456250X-0.243750X0.456250X-0.243750X-0.456250X0.243750X-0.456250X0*%
%ADD15RoundRect,0.250000X-0.450000X0.262500X-0.450000X-0.262500X0.450000X-0.262500X0.450000X0.262500X0*%
%ADD16RoundRect,0.150000X-0.512500X-0.150000X0.512500X-0.150000X0.512500X0.150000X-0.512500X0.150000X0*%
%ADD17RoundRect,0.250000X0.262500X0.450000X-0.262500X0.450000X-0.262500X-0.450000X0.262500X-0.450000X0*%
%ADD18R,0.650000X1.050000*%
%ADD19RoundRect,0.250000X-1.000000X0.375000X-1.000000X-0.375000X1.000000X-0.375000X1.000000X0.375000X0*%
%ADD20RoundRect,0.250000X-0.475000X0.250000X-0.475000X-0.250000X0.475000X-0.250000X0.475000X0.250000X0*%
%ADD21RoundRect,0.150000X0.150000X0.200000X-0.150000X0.200000X-0.150000X-0.200000X0.150000X-0.200000X0*%
%ADD22RoundRect,0.150000X-0.425000X0.150000X-0.425000X-0.150000X0.425000X-0.150000X0.425000X0.150000X0*%
%ADD23RoundRect,0.075000X-0.500000X0.075000X-0.500000X-0.075000X0.500000X-0.075000X0.500000X0.075000X0*%
%ADD24O,2.100000X1.000000*%
%ADD25O,1.800000X1.000000*%
%ADD26RoundRect,0.250000X-0.250000X-0.475000X0.250000X-0.475000X0.250000X0.475000X-0.250000X0.475000X0*%
%ADD27RoundRect,0.250000X-0.262500X-0.450000X0.262500X-0.450000X0.262500X0.450000X-0.262500X0.450000X0*%
%ADD28RoundRect,0.243750X0.456250X-0.243750X0.456250X0.243750X-0.456250X0.243750X-0.456250X-0.243750X0*%
%ADD29R,0.800000X0.400000*%
%ADD30R,0.400000X0.800000*%
%ADD31R,1.200000X1.200000*%
%ADD32R,0.800000X0.800000*%
%ADD33RoundRect,0.150000X-0.150000X-0.200000X0.150000X-0.200000X0.150000X0.200000X-0.150000X0.200000X0*%
%ADD34RoundRect,0.250000X0.450000X-0.262500X0.450000X0.262500X-0.450000X0.262500X-0.450000X-0.262500X0*%
%ADD35RoundRect,0.243750X-0.243750X-0.456250X0.243750X-0.456250X0.243750X0.456250X-0.243750X0.456250X0*%
G04 APERTURE END LIST*
D10*
%TO.C,U1*%
X128150000Y-69000000D02*
X126950000Y-69000000D01*
X126950000Y-68400000D01*
X127550000Y-67800000D01*
X128150000Y-67800000D01*
X128150000Y-69000000D01*
G36*
X128150000Y-69000000D02*
G01*
X126950000Y-69000000D01*
X126950000Y-68400000D01*
X127550000Y-67800000D01*
X128150000Y-67800000D01*
X128150000Y-69000000D01*
G37*
%TD*%
D11*
%TO.C,C5*%
X143900000Y-70200000D03*
X143900000Y-68300000D03*
%TD*%
D12*
%TO.C,D10*%
X131600000Y-96500000D03*
D13*
X131600000Y-98200000D03*
X133600000Y-98200000D03*
X133600000Y-96300000D03*
%TD*%
D14*
%TO.C,D6*%
X144775000Y-108050000D03*
X142900000Y-108050000D03*
%TD*%
D15*
%TO.C,R3*%
X160750000Y-66407500D03*
X160750000Y-68232500D03*
%TD*%
D16*
%TO.C,U6*%
X135531300Y-89631200D03*
X135531300Y-90581200D03*
X135531300Y-91531200D03*
X137806300Y-91531200D03*
X137806300Y-89631200D03*
%TD*%
D17*
%TO.C,R5*%
X145512500Y-93000000D03*
X143687500Y-93000000D03*
%TD*%
D18*
%TO.C,SW4*%
X137190000Y-100070000D03*
X137190000Y-104220000D03*
X135040000Y-100070000D03*
X135040000Y-104195000D03*
%TD*%
D17*
%TO.C,R9*%
X148912500Y-108000000D03*
X147087500Y-108000000D03*
%TD*%
D19*
%TO.C,S1*%
X128100000Y-99400000D03*
X128100000Y-101900000D03*
X128100000Y-104400000D03*
%TD*%
D20*
%TO.C,C6*%
X149200000Y-72800000D03*
X149200000Y-74700000D03*
%TD*%
D21*
%TO.C,D1*%
X139168800Y-97931200D03*
X140568800Y-97931200D03*
%TD*%
D17*
%TO.C,R1*%
X143912500Y-79400000D03*
X142087500Y-79400000D03*
%TD*%
D22*
%TO.C,J5*%
X129600000Y-88000000D03*
X129600000Y-88800000D03*
D23*
X129600000Y-89950000D03*
X129600000Y-90950000D03*
X129600000Y-91450000D03*
X129600000Y-92450000D03*
D22*
X129600000Y-93600000D03*
X129600000Y-94400000D03*
X129600000Y-94400000D03*
X129600000Y-93600000D03*
D23*
X129600000Y-92950000D03*
X129600000Y-91950000D03*
X129600000Y-90450000D03*
X129600000Y-89450000D03*
D22*
X129600000Y-88800000D03*
X129600000Y-88000000D03*
D24*
X129025000Y-86880000D03*
D25*
X124845000Y-86880000D03*
D24*
X129025000Y-95520000D03*
D25*
X124845000Y-95520000D03*
%TD*%
D14*
%TO.C,D7*%
X144772500Y-59280000D03*
X142897500Y-59280000D03*
%TD*%
D26*
%TO.C,C2*%
X143650000Y-87800000D03*
X145550000Y-87800000D03*
%TD*%
D17*
%TO.C,R13*%
X163512500Y-84000000D03*
X161687500Y-84000000D03*
%TD*%
D27*
%TO.C,R11*%
X146687500Y-96200000D03*
X148512500Y-96200000D03*
%TD*%
D18*
%TO.C,SW5*%
X144940000Y-100095000D03*
X144940000Y-104245000D03*
X142790000Y-100095000D03*
X142790000Y-104220000D03*
%TD*%
D27*
%TO.C,R4*%
X142087500Y-84200000D03*
X143912500Y-84200000D03*
%TD*%
%TO.C,R7*%
X133287500Y-85800000D03*
X135112500Y-85800000D03*
%TD*%
D28*
%TO.C,D5*%
X122785000Y-84587500D03*
X122785000Y-82712500D03*
%TD*%
D14*
%TO.C,D8*%
X144650000Y-96300000D03*
X142775000Y-96300000D03*
%TD*%
D28*
%TO.C,D9*%
X166850000Y-84587500D03*
X166850000Y-82712500D03*
%TD*%
D29*
%TO.C,U1*%
X122200000Y-64100000D03*
X122200000Y-64950000D03*
X122200000Y-65800000D03*
X122200000Y-66650000D03*
X122200000Y-67500000D03*
X122200000Y-68350000D03*
X122200000Y-69200000D03*
X122200000Y-70050000D03*
X122200000Y-70900000D03*
X122200000Y-71750000D03*
X122200000Y-72600000D03*
X122200000Y-73450000D03*
X122200000Y-74300000D03*
X122200000Y-75150000D03*
X122200000Y-76000000D03*
D30*
X123250000Y-77050000D03*
X124100000Y-77050000D03*
X124950000Y-77050000D03*
X125800000Y-77050000D03*
X126650000Y-77050000D03*
X127500000Y-77050000D03*
X128350000Y-77050000D03*
X129200000Y-77050000D03*
X130050000Y-77050000D03*
X130900000Y-77050000D03*
X131750000Y-77050000D03*
X132600000Y-77050000D03*
X133450000Y-77050000D03*
X134300000Y-77050000D03*
X135150000Y-77050000D03*
D29*
X136200000Y-76000000D03*
X136200000Y-75150000D03*
X136200000Y-74300000D03*
X136200000Y-73450000D03*
X136200000Y-72600000D03*
X136200000Y-71750000D03*
X136200000Y-70900000D03*
X136200000Y-70050000D03*
X136200000Y-69200000D03*
X136200000Y-68350000D03*
X136200000Y-67500000D03*
X136200000Y-66650000D03*
X136200000Y-65800000D03*
X136200000Y-64950000D03*
X136200000Y-64100000D03*
D30*
X135150000Y-63050000D03*
X134300000Y-63050000D03*
X133450000Y-63050000D03*
X132600000Y-63050000D03*
X131750000Y-63050000D03*
X130900000Y-63050000D03*
X130050000Y-63050000D03*
X129200000Y-63050000D03*
X128350000Y-63050000D03*
X127500000Y-63050000D03*
X126650000Y-63050000D03*
X125800000Y-63050000D03*
X124950000Y-63050000D03*
X124100000Y-63050000D03*
X123250000Y-63050000D03*
D31*
X129200000Y-70050000D03*
X129200000Y-68400000D03*
X130850000Y-68400000D03*
X130850000Y-70050000D03*
X130850000Y-71700000D03*
X129200000Y-71700000D03*
X127550000Y-71700000D03*
X127550000Y-70050000D03*
D32*
X122200000Y-63050000D03*
X122200000Y-77050000D03*
X136200000Y-77050000D03*
X136200000Y-63050000D03*
%TD*%
D18*
%TO.C,SW6*%
X150540000Y-104270000D03*
X150540000Y-100120000D03*
X152690000Y-104270000D03*
X152690000Y-100145000D03*
%TD*%
D11*
%TO.C,C7*%
X149300000Y-70350000D03*
X149300000Y-68450000D03*
%TD*%
D27*
%TO.C,R8*%
X124087500Y-80400000D03*
X125912500Y-80400000D03*
%TD*%
D26*
%TO.C,C1*%
X142050000Y-81800000D03*
X143950000Y-81800000D03*
%TD*%
D15*
%TO.C,R10*%
X144000000Y-61887500D03*
X144000000Y-63712500D03*
%TD*%
D33*
%TO.C,D2*%
X136600000Y-97981200D03*
X135200000Y-97981200D03*
%TD*%
D34*
%TO.C,R12*%
X143900000Y-74512500D03*
X143900000Y-72687500D03*
%TD*%
D17*
%TO.C,R6*%
X145512500Y-90600000D03*
X143687500Y-90600000D03*
%TD*%
D26*
%TO.C,C9*%
X152650000Y-71800000D03*
X154550000Y-71800000D03*
%TD*%
D20*
%TO.C,C8*%
X136868800Y-93631200D03*
X136868800Y-95531200D03*
%TD*%
D35*
%TO.C,D3*%
X142062500Y-77000000D03*
X143937500Y-77000000D03*
%TD*%
D16*
%TO.C,U2*%
X135400000Y-81562500D03*
X135400000Y-82512500D03*
X135400000Y-83462500D03*
X137675000Y-83462500D03*
X137675000Y-81562500D03*
%TD*%
D15*
%TO.C,R2*%
X160100000Y-70575000D03*
X160100000Y-72400000D03*
%TD*%
M02*
