%TF.GenerationSoftware,KiCad,Pcbnew,8.0.1*%
%TF.CreationDate,2024-05-04T10:24:30-07:00*%
%TF.ProjectId,schematic,73636865-6d61-4746-9963-2e6b69636164,rev?*%
%TF.SameCoordinates,Original*%
%TF.FileFunction,Legend,Bot*%
%TF.FilePolarity,Positive*%
%FSLAX46Y46*%
G04 Gerber Fmt 4.6, Leading zero omitted, Abs format (unit mm)*
G04 Created by KiCad (PCBNEW 8.0.1) date 2024-05-04 10:24:30*
%MOMM*%
%LPD*%
G01*
G04 APERTURE LIST*
%ADD10C,0.150000*%
%ADD11C,0.100000*%
%ADD12C,0.120000*%
G04 APERTURE END LIST*
D10*
X154983333Y-90234819D02*
X154983333Y-90949104D01*
X154983333Y-90949104D02*
X155030952Y-91091961D01*
X155030952Y-91091961D02*
X155126190Y-91187200D01*
X155126190Y-91187200D02*
X155269047Y-91234819D01*
X155269047Y-91234819D02*
X155364285Y-91234819D01*
X154078571Y-90568152D02*
X154078571Y-91234819D01*
X154316666Y-90187200D02*
X154554761Y-90901485D01*
X154554761Y-90901485D02*
X153935714Y-90901485D01*
X166483332Y-100607200D02*
X166340475Y-100654819D01*
X166340475Y-100654819D02*
X166102380Y-100654819D01*
X166102380Y-100654819D02*
X166007142Y-100607200D01*
X166007142Y-100607200D02*
X165959523Y-100559580D01*
X165959523Y-100559580D02*
X165911904Y-100464342D01*
X165911904Y-100464342D02*
X165911904Y-100369104D01*
X165911904Y-100369104D02*
X165959523Y-100273866D01*
X165959523Y-100273866D02*
X166007142Y-100226247D01*
X166007142Y-100226247D02*
X166102380Y-100178628D01*
X166102380Y-100178628D02*
X166292856Y-100131009D01*
X166292856Y-100131009D02*
X166388094Y-100083390D01*
X166388094Y-100083390D02*
X166435713Y-100035771D01*
X166435713Y-100035771D02*
X166483332Y-99940533D01*
X166483332Y-99940533D02*
X166483332Y-99845295D01*
X166483332Y-99845295D02*
X166435713Y-99750057D01*
X166435713Y-99750057D02*
X166388094Y-99702438D01*
X166388094Y-99702438D02*
X166292856Y-99654819D01*
X166292856Y-99654819D02*
X166054761Y-99654819D01*
X166054761Y-99654819D02*
X165911904Y-99702438D01*
X165578570Y-99654819D02*
X165340475Y-100654819D01*
X165340475Y-100654819D02*
X165149999Y-99940533D01*
X165149999Y-99940533D02*
X164959523Y-100654819D01*
X164959523Y-100654819D02*
X164721428Y-99654819D01*
X163816666Y-100654819D02*
X164388094Y-100654819D01*
X164102380Y-100654819D02*
X164102380Y-99654819D01*
X164102380Y-99654819D02*
X164197618Y-99797676D01*
X164197618Y-99797676D02*
X164292856Y-99892914D01*
X164292856Y-99892914D02*
X164388094Y-99940533D01*
D11*
X166342419Y-58998095D02*
X167151942Y-58998095D01*
X167151942Y-58998095D02*
X167247180Y-59045714D01*
X167247180Y-59045714D02*
X167294800Y-59093333D01*
X167294800Y-59093333D02*
X167342419Y-59188571D01*
X167342419Y-59188571D02*
X167342419Y-59379047D01*
X167342419Y-59379047D02*
X167294800Y-59474285D01*
X167294800Y-59474285D02*
X167247180Y-59521904D01*
X167247180Y-59521904D02*
X167151942Y-59569523D01*
X167151942Y-59569523D02*
X166342419Y-59569523D01*
X166342419Y-60521904D02*
X166342419Y-60045714D01*
X166342419Y-60045714D02*
X166818609Y-59998095D01*
X166818609Y-59998095D02*
X166770990Y-60045714D01*
X166770990Y-60045714D02*
X166723371Y-60140952D01*
X166723371Y-60140952D02*
X166723371Y-60379047D01*
X166723371Y-60379047D02*
X166770990Y-60474285D01*
X166770990Y-60474285D02*
X166818609Y-60521904D01*
X166818609Y-60521904D02*
X166913847Y-60569523D01*
X166913847Y-60569523D02*
X167151942Y-60569523D01*
X167151942Y-60569523D02*
X167247180Y-60521904D01*
X167247180Y-60521904D02*
X167294800Y-60474285D01*
X167294800Y-60474285D02*
X167342419Y-60379047D01*
X167342419Y-60379047D02*
X167342419Y-60140952D01*
X167342419Y-60140952D02*
X167294800Y-60045714D01*
X167294800Y-60045714D02*
X167247180Y-59998095D01*
D10*
X166358332Y-93607200D02*
X166215475Y-93654819D01*
X166215475Y-93654819D02*
X165977380Y-93654819D01*
X165977380Y-93654819D02*
X165882142Y-93607200D01*
X165882142Y-93607200D02*
X165834523Y-93559580D01*
X165834523Y-93559580D02*
X165786904Y-93464342D01*
X165786904Y-93464342D02*
X165786904Y-93369104D01*
X165786904Y-93369104D02*
X165834523Y-93273866D01*
X165834523Y-93273866D02*
X165882142Y-93226247D01*
X165882142Y-93226247D02*
X165977380Y-93178628D01*
X165977380Y-93178628D02*
X166167856Y-93131009D01*
X166167856Y-93131009D02*
X166263094Y-93083390D01*
X166263094Y-93083390D02*
X166310713Y-93035771D01*
X166310713Y-93035771D02*
X166358332Y-92940533D01*
X166358332Y-92940533D02*
X166358332Y-92845295D01*
X166358332Y-92845295D02*
X166310713Y-92750057D01*
X166310713Y-92750057D02*
X166263094Y-92702438D01*
X166263094Y-92702438D02*
X166167856Y-92654819D01*
X166167856Y-92654819D02*
X165929761Y-92654819D01*
X165929761Y-92654819D02*
X165786904Y-92702438D01*
X165453570Y-92654819D02*
X165215475Y-93654819D01*
X165215475Y-93654819D02*
X165024999Y-92940533D01*
X165024999Y-92940533D02*
X164834523Y-93654819D01*
X164834523Y-93654819D02*
X164596428Y-92654819D01*
X164310713Y-92654819D02*
X163691666Y-92654819D01*
X163691666Y-92654819D02*
X164024999Y-93035771D01*
X164024999Y-93035771D02*
X163882142Y-93035771D01*
X163882142Y-93035771D02*
X163786904Y-93083390D01*
X163786904Y-93083390D02*
X163739285Y-93131009D01*
X163739285Y-93131009D02*
X163691666Y-93226247D01*
X163691666Y-93226247D02*
X163691666Y-93464342D01*
X163691666Y-93464342D02*
X163739285Y-93559580D01*
X163739285Y-93559580D02*
X163786904Y-93607200D01*
X163786904Y-93607200D02*
X163882142Y-93654819D01*
X163882142Y-93654819D02*
X164167856Y-93654819D01*
X164167856Y-93654819D02*
X164263094Y-93607200D01*
X164263094Y-93607200D02*
X164310713Y-93559580D01*
D12*
%TO.C,J4*%
X153320000Y-92050000D02*
X155980000Y-92050000D01*
X153320000Y-99730000D02*
X153320000Y-92050000D01*
X153320000Y-99730000D02*
X155980000Y-99730000D01*
X154650000Y-89450000D02*
X155980000Y-89450000D01*
X155980000Y-89450000D02*
X155980000Y-90780000D01*
X155980000Y-99730000D02*
X155980000Y-92050000D01*
%TO.C,SW1*%
X162800000Y-97650000D02*
X162800000Y-97550000D01*
X162800000Y-99350000D02*
X167200000Y-99350000D01*
X167200000Y-95850000D02*
X162800000Y-95850000D01*
X167200000Y-97650000D02*
X167200000Y-97550000D01*
%TO.C,SW3*%
X162675000Y-90650000D02*
X162675000Y-90550000D01*
X162675000Y-92350000D02*
X167075000Y-92350000D01*
X167075000Y-88850000D02*
X162675000Y-88850000D01*
X167075000Y-90650000D02*
X167075000Y-90550000D01*
%TD*%
M02*
