%TF.GenerationSoftware,KiCad,Pcbnew,8.0.1*%
%TF.CreationDate,2024-05-04T10:24:30-07:00*%
%TF.ProjectId,schematic,73636865-6d61-4746-9963-2e6b69636164,rev?*%
%TF.SameCoordinates,Original*%
%TF.FileFunction,Copper,L2,Bot*%
%TF.FilePolarity,Positive*%
%FSLAX46Y46*%
G04 Gerber Fmt 4.6, Leading zero omitted, Abs format (unit mm)*
G04 Created by KiCad (PCBNEW 8.0.1) date 2024-05-04 10:24:30*
%MOMM*%
%LPD*%
G01*
G04 APERTURE LIST*
%TA.AperFunction,ComponentPad*%
%ADD10R,0.850000X0.850000*%
%TD*%
%TA.AperFunction,ComponentPad*%
%ADD11O,0.850000X0.850000*%
%TD*%
%TA.AperFunction,ComponentPad*%
%ADD12O,2.100000X1.000000*%
%TD*%
%TA.AperFunction,ComponentPad*%
%ADD13O,1.800000X1.000000*%
%TD*%
%TA.AperFunction,ComponentPad*%
%ADD14R,1.700000X1.700000*%
%TD*%
%TA.AperFunction,ComponentPad*%
%ADD15O,1.700000X1.700000*%
%TD*%
%TA.AperFunction,SMDPad,CuDef*%
%ADD16R,1.050000X0.650000*%
%TD*%
%TA.AperFunction,ComponentPad*%
%ADD17C,1.700000*%
%TD*%
%TA.AperFunction,ViaPad*%
%ADD18C,0.600000*%
%TD*%
%TA.AperFunction,Conductor*%
%ADD19C,0.200000*%
%TD*%
G04 APERTURE END LIST*
D10*
%TO.P,U4,1,VCC*%
%TO.N,+5V*%
X132600000Y-94400000D03*
D11*
%TO.P,U4,2,DP*%
%TO.N,/DP*%
X132600000Y-93400000D03*
%TO.P,U4,3,DN*%
%TO.N,/DN*%
X132600000Y-92400000D03*
%TO.P,U4,4,CC1*%
%TO.N,/CC1*%
X132600000Y-91400000D03*
%TO.P,U4,5,CC2*%
%TO.N,/CC2*%
X132600000Y-90400000D03*
%TO.P,U4,6,GND*%
%TO.N,GND*%
X132600000Y-89400000D03*
%TD*%
D12*
%TO.P,J5,S1,SHIELD*%
%TO.N,Net-(J5-SHIELD)*%
X129025000Y-86880000D03*
D13*
X124845000Y-86880000D03*
D12*
X129025000Y-95520000D03*
D13*
X124845000Y-95520000D03*
%TD*%
D14*
%TO.P,BT1,1,+*%
%TO.N,Net-(BT1-+)*%
X129800000Y-83600000D03*
D15*
%TO.P,BT1,2,-*%
%TO.N,GND*%
X127260000Y-83600000D03*
%TD*%
D14*
%TO.P,J3,1,Pin_1*%
%TO.N,GND*%
X149550000Y-63050000D03*
D15*
%TO.P,J3,2,Pin_2*%
%TO.N,+3V3*%
X152090000Y-63050000D03*
%TO.P,J3,3,Pin_3*%
%TO.N,/OLED_SCL*%
X154630000Y-63050000D03*
%TO.P,J3,4,Pin_4*%
%TO.N,/OLED_SDA*%
X157170000Y-63050000D03*
%TD*%
D10*
%TO.P,J1,1,Pin_1*%
%TO.N,Net-(BT1-+)*%
X149600000Y-87800000D03*
D11*
%TO.P,J1,2,Pin_2*%
%TO.N,Net-(D1-A)*%
X150600000Y-87800000D03*
%TD*%
D14*
%TO.P,J4,1,Pin_1*%
%TO.N,GND*%
X154650000Y-90780000D03*
D15*
%TO.P,J4,2,Pin_2*%
%TO.N,/TX*%
X154650000Y-93320000D03*
%TO.P,J4,3,Pin_3*%
%TO.N,/RX*%
X154650000Y-95860000D03*
%TO.P,J4,4,Pin_4*%
%TO.N,+3V3*%
X154650000Y-98400000D03*
%TD*%
D16*
%TO.P,SW1,1,1*%
%TO.N,GND*%
X162925000Y-98675000D03*
X167075000Y-98675000D03*
%TO.P,SW1,2,2*%
%TO.N,Net-(U1-EN)*%
X162925000Y-96525000D03*
X167050000Y-96525000D03*
%TD*%
D17*
%TO.P,U5,1,Vin*%
%TO.N,+3V3*%
X164835000Y-59600000D03*
%TO.P,U5,2,GND*%
%TO.N,GND*%
X164835000Y-62140000D03*
%TO.P,U5,3,EN*%
%TO.N,/LORA_EN*%
X164835000Y-64680000D03*
%TO.P,U5,4,G0*%
%TO.N,/LORA_GO*%
X164835000Y-67220000D03*
%TO.P,U5,5,SCK*%
%TO.N,/LORA_SCK*%
X164835000Y-69760000D03*
%TO.P,U5,6,MISO*%
%TO.N,/LORA_MISO*%
X164835000Y-72300000D03*
%TO.P,U5,7,MOSI*%
%TO.N,/LORA_MOSI*%
X164835000Y-74840000D03*
%TO.P,U5,8,CS*%
%TO.N,/LORA_CS*%
X164835000Y-77380000D03*
%TO.P,U5,9,RST*%
%TO.N,/LORA_RST*%
X164835000Y-79920000D03*
%TO.P,U5,10,G1*%
%TO.N,/LORA_G1*%
X139435000Y-59600000D03*
%TO.P,U5,11,G2*%
%TO.N,/LORA_G2*%
X139435000Y-62140000D03*
%TO.P,U5,12,G3*%
%TO.N,/LORA_G3*%
X139435000Y-64680000D03*
%TO.P,U5,13,G4*%
%TO.N,/LORA_G4*%
X139435000Y-67220000D03*
%TO.P,U5,14,G5*%
%TO.N,/LORA_G5*%
X139435000Y-69760000D03*
%TD*%
D16*
%TO.P,SW3,1,1*%
%TO.N,GND*%
X162800000Y-91675000D03*
X166950000Y-91675000D03*
%TO.P,SW3,2,2*%
%TO.N,Net-(U1-IO0)*%
X162800000Y-89525000D03*
X166925000Y-89525000D03*
%TD*%
D18*
%TO.N,GND*%
X131800000Y-86800000D03*
X136800000Y-84800000D03*
X135824265Y-87775735D03*
X132800000Y-87800000D03*
X136475735Y-86324265D03*
X135200000Y-80200000D03*
X151400000Y-90800000D03*
X131200000Y-100200000D03*
X133200000Y-81800000D03*
X147000000Y-87200000D03*
X130758949Y-97400000D03*
X148800000Y-89800000D03*
X147000000Y-91600000D03*
X134400000Y-78800000D03*
X138600000Y-100000000D03*
X166123300Y-90900000D03*
X161884000Y-98307700D03*
X130800000Y-80200000D03*
X161874800Y-91006700D03*
X129200000Y-81200000D03*
X127600000Y-80400000D03*
X166040400Y-99083900D03*
X149600000Y-94000000D03*
X147200000Y-106000000D03*
X128800000Y-97200000D03*
X132400000Y-101400000D03*
X148800000Y-104400000D03*
X138000000Y-88000000D03*
%TO.N,+5V*%
X133600000Y-97200000D03*
X137600000Y-85600000D03*
X137600000Y-85600000D03*
X130000000Y-98000000D03*
X138375735Y-87224265D03*
%TO.N,+3V3*%
X141600000Y-99000000D03*
X140167224Y-77767224D03*
X147400000Y-75033300D03*
X140345800Y-73384600D03*
X145200000Y-75175900D03*
X140800000Y-95400000D03*
X135248300Y-73386900D03*
X140200000Y-76400000D03*
X139600000Y-86200000D03*
X160400000Y-62000000D03*
X140600000Y-89600000D03*
X162800000Y-59800000D03*
%TO.N,Net-(U1-EN)*%
X148267600Y-82440700D03*
%TO.N,/DP*%
X131453000Y-83215500D03*
%TO.N,/DN*%
X128217500Y-84846500D03*
%TO.N,/LED_1*%
X123122500Y-74894200D03*
X122560400Y-78922900D03*
%TO.N,/LED_3*%
X142257000Y-66920500D03*
X128575000Y-74369900D03*
%TO.N,/LED_4*%
X125601800Y-77968300D03*
X142473100Y-93890700D03*
%TO.N,/LED_5*%
X165645200Y-82281500D03*
X133997800Y-75005600D03*
%TO.N,/OLED_SDA*%
X124392000Y-69815700D03*
%TO.N,/OLED_SCL*%
X123120200Y-69982100D03*
%TO.N,/TX*%
X135292700Y-69862100D03*
%TO.N,/RX*%
X134507400Y-69413100D03*
%TO.N,/BAT*%
X158600000Y-71473100D03*
X135285000Y-74429600D03*
%TO.N,Net-(U1-IO0)*%
X123784600Y-68540300D03*
%TO.N,/BTN_1*%
X134200000Y-99898900D03*
X121205600Y-72825000D03*
%TO.N,/BTN_2*%
X142703800Y-99059200D03*
X123109900Y-73534300D03*
%TO.N,/LORA_CS*%
X135276100Y-75481200D03*
%TO.N,/LORA_RST*%
X135295400Y-72353500D03*
%TO.N,/LORA_GO*%
X137105300Y-72277000D03*
%TO.N,/LORA_EN*%
X138790200Y-71680200D03*
%TO.N,/LORA_SCK*%
X138978700Y-72939100D03*
%TO.N,/LORA_G1*%
X126204700Y-64396500D03*
%TO.N,/LORA_MISO*%
X137117100Y-74433300D03*
%TO.N,/LORA_MOSI*%
X137125800Y-75775900D03*
%TO.N,/LORA_G3*%
X133711600Y-64776800D03*
%TO.N,Net-(J5-CC2)*%
X131005700Y-93573600D03*
X141599900Y-93382600D03*
%TD*%
D19*
%TO.N,GND*%
X132600000Y-89400000D02*
X132800000Y-89200000D01*
X138600000Y-100000000D02*
X138600000Y-97400000D01*
X133400000Y-102400000D02*
X132400000Y-101400000D01*
X130800000Y-80200000D02*
X131600000Y-80200000D01*
X149400000Y-94000000D02*
X149600000Y-94000000D01*
X128800000Y-97200000D02*
X128800000Y-97800000D01*
X147000000Y-91600000D02*
X149400000Y-94000000D01*
X148800000Y-89800000D02*
X150400000Y-89800000D01*
X129000000Y-97400000D02*
X130758949Y-97400000D01*
X135800000Y-96600000D02*
X131800000Y-96600000D01*
X135200000Y-80200000D02*
X135200000Y-79600000D01*
X148800000Y-89800000D02*
X147000000Y-88000000D01*
X132800000Y-87800000D02*
X131800000Y-86800000D01*
X167075000Y-98675000D02*
X166248300Y-98675000D01*
X135200000Y-79600000D02*
X134400000Y-78800000D01*
X131600000Y-80200000D02*
X133200000Y-81800000D01*
X161874800Y-91006700D02*
X161973300Y-91105200D01*
X129000000Y-81200000D02*
X129200000Y-81200000D01*
X147400000Y-105800000D02*
X148800000Y-104400000D01*
X136475735Y-86324265D02*
X136475735Y-85124265D01*
X136800000Y-95600000D02*
X135800000Y-96600000D01*
X147000000Y-88000000D02*
X147000000Y-87200000D01*
X161884000Y-98307700D02*
X162098300Y-98522000D01*
X138600000Y-97400000D02*
X136800000Y-95600000D01*
X128200000Y-80400000D02*
X129000000Y-81200000D01*
X136475735Y-86475735D02*
X136475735Y-86324265D01*
X136475735Y-85124265D02*
X136800000Y-84800000D01*
X138000000Y-88000000D02*
X136475735Y-86475735D01*
X138600000Y-100000000D02*
X138600000Y-102400000D01*
X166123300Y-90900000D02*
X166123300Y-91675000D01*
X138600000Y-102400000D02*
X133400000Y-102400000D01*
X166040400Y-99083900D02*
X166248300Y-98876000D01*
X132800000Y-89200000D02*
X132800000Y-87800000D01*
X162800000Y-91675000D02*
X161973300Y-91675000D01*
X166248300Y-98876000D02*
X166248300Y-98675000D01*
X166950000Y-91675000D02*
X166123300Y-91675000D01*
X128800000Y-97800000D02*
X131200000Y-100200000D01*
X128800000Y-97200000D02*
X129000000Y-97400000D01*
X161973300Y-91105200D02*
X161973300Y-91675000D01*
X150400000Y-89800000D02*
X151400000Y-90800000D01*
X162098300Y-98522000D02*
X162098300Y-98675000D01*
X127600000Y-80400000D02*
X128200000Y-80400000D01*
X147200000Y-106000000D02*
X147400000Y-105800000D01*
X162925000Y-98675000D02*
X162098300Y-98675000D01*
%TO.N,+5V*%
X132800000Y-98000000D02*
X133600000Y-97200000D01*
X137600000Y-86448530D02*
X137600000Y-85600000D01*
X130000000Y-98000000D02*
X132800000Y-98000000D01*
X138375735Y-87224265D02*
X137600000Y-86448530D01*
%TO.N,+3V3*%
X147257400Y-75175900D02*
X147400000Y-75033300D01*
X138528600Y-73580000D02*
X138335500Y-73386900D01*
X138335500Y-73386900D02*
X135248300Y-73386900D01*
X141200000Y-98600000D02*
X141200000Y-95800000D01*
X140150400Y-73580000D02*
X138528600Y-73580000D01*
X140167224Y-76432776D02*
X140200000Y-76400000D01*
X140600000Y-89600000D02*
X140600000Y-87200000D01*
X162600000Y-59800000D02*
X162800000Y-59800000D01*
X141600000Y-99000000D02*
X141200000Y-98600000D01*
X140345800Y-73384600D02*
X140150400Y-73580000D01*
X140600000Y-87200000D02*
X139600000Y-86200000D01*
X141200000Y-95800000D02*
X140800000Y-95400000D01*
X145200000Y-75175900D02*
X147257400Y-75175900D01*
X140167224Y-77767224D02*
X140167224Y-76432776D01*
X160400000Y-62000000D02*
X162600000Y-59800000D01*
%TO.N,Net-(U1-EN)*%
X148267600Y-82440700D02*
X161220400Y-82440700D01*
X167050000Y-96525000D02*
X162925000Y-96525000D01*
X161220400Y-82440700D02*
X167876700Y-89097000D01*
X167050000Y-96525000D02*
X167876700Y-96525000D01*
X167876700Y-89097000D02*
X167876700Y-96525000D01*
%TO.N,/DP*%
X133326700Y-86692385D02*
X133326700Y-85089200D01*
X133600000Y-93400000D02*
X133600000Y-86965686D01*
X133326700Y-85089200D02*
X131453000Y-83215500D01*
X133600000Y-86965686D02*
X133326700Y-86692385D01*
X132600000Y-93400000D02*
X133600000Y-93400000D01*
%TO.N,/DN*%
X128696800Y-84846500D02*
X128217500Y-84846500D01*
X131873300Y-88023000D02*
X128696800Y-84846500D01*
X131873300Y-92400000D02*
X131873300Y-88023000D01*
X132600000Y-92400000D02*
X131873300Y-92400000D01*
%TO.N,/LED_1*%
X123122500Y-78360800D02*
X123122500Y-74894200D01*
X122560400Y-78922900D02*
X123122500Y-78360800D01*
%TO.N,/LED_3*%
X140747500Y-68430000D02*
X134514900Y-68430000D01*
X142257000Y-66920500D02*
X140747500Y-68430000D01*
X134514900Y-68430000D02*
X128575000Y-74369900D01*
%TO.N,/LED_4*%
X125601800Y-77968300D02*
X127054329Y-77968300D01*
X133726700Y-84640671D02*
X133726700Y-86526700D01*
X133726700Y-86526700D02*
X139982600Y-92782600D01*
X142473100Y-93407271D02*
X142473100Y-93890700D01*
X139982600Y-92782600D02*
X141848429Y-92782600D01*
X127054329Y-77968300D02*
X133726700Y-84640671D01*
X141848429Y-92782600D02*
X142473100Y-93407271D01*
%TO.N,/LED_5*%
X165645200Y-82281500D02*
X162077300Y-82281500D01*
X133997800Y-75717400D02*
X133997800Y-75005600D01*
X138880400Y-80600000D02*
X133997800Y-75717400D01*
X160395800Y-80600000D02*
X138880400Y-80600000D01*
X162077300Y-82281500D02*
X160395800Y-80600000D01*
%TO.N,/OLED_SDA*%
X153409200Y-65947000D02*
X128260700Y-65947000D01*
X157170000Y-63050000D02*
X156018300Y-63050000D01*
X156018300Y-63337900D02*
X153409200Y-65947000D01*
X128260700Y-65947000D02*
X124392000Y-69815700D01*
X156018300Y-63050000D02*
X156018300Y-63337900D01*
%TO.N,/OLED_SCL*%
X153478300Y-63338000D02*
X152614600Y-64201700D01*
X153478300Y-63050000D02*
X153478300Y-63338000D01*
X152614600Y-64201700D02*
X148575000Y-64201700D01*
X127977100Y-63483000D02*
X123120200Y-68339900D01*
X148575000Y-64201700D02*
X147856300Y-63483000D01*
X147856300Y-63483000D02*
X127977100Y-63483000D01*
X123120200Y-68339900D02*
X123120200Y-69982100D01*
X154630000Y-63050000D02*
X153478300Y-63050000D01*
%TO.N,/TX*%
X133384700Y-75707000D02*
X133384700Y-71770100D01*
X133384700Y-71770100D02*
X135292700Y-69862100D01*
X150997700Y-93320000D02*
X133384700Y-75707000D01*
X154650000Y-93320000D02*
X150997700Y-93320000D01*
%TO.N,/RX*%
X152965500Y-95860000D02*
X132979100Y-75873600D01*
X132979100Y-75873600D02*
X132979100Y-70941400D01*
X154650000Y-95860000D02*
X152965500Y-95860000D01*
X132979100Y-70941400D02*
X134507400Y-69413100D01*
%TO.N,/BAT*%
X138176800Y-73996400D02*
X138010500Y-73830100D01*
X156678600Y-73996400D02*
X138176800Y-73996400D01*
X158600000Y-72075000D02*
X156678600Y-73996400D01*
X158600000Y-71473100D02*
X158600000Y-72075000D01*
X138010500Y-73830100D02*
X135884500Y-73830100D01*
X135884500Y-73830100D02*
X135285000Y-74429600D01*
%TO.N,Net-(U1-IO0)*%
X157600000Y-93898300D02*
X157600000Y-96000000D01*
X157600000Y-96000000D02*
X156586600Y-97013400D01*
X162800000Y-89525000D02*
X161973300Y-89525000D01*
X123784600Y-70428029D02*
X123784600Y-68540300D01*
X166925000Y-89525000D02*
X162800000Y-89525000D01*
X151564871Y-97013400D02*
X146400000Y-91848529D01*
X156586600Y-97013400D02*
X151564871Y-97013400D01*
X161973300Y-89525000D02*
X157600000Y-93898300D01*
X146400000Y-91800000D02*
X135400000Y-80800000D01*
X135400000Y-80800000D02*
X134156571Y-80800000D01*
X146400000Y-91848529D02*
X146400000Y-91800000D01*
X134156571Y-80800000D02*
X123784600Y-70428029D01*
%TO.N,/BTN_1*%
X121205600Y-93456100D02*
X124565500Y-96816000D01*
X131400000Y-101800000D02*
X131800000Y-101400000D01*
X124550000Y-98168629D02*
X124550000Y-99750000D01*
X131800000Y-101400000D02*
X131800000Y-101151471D01*
X129498900Y-99898900D02*
X131400000Y-101800000D01*
X124550000Y-99750000D02*
X124698900Y-99898900D01*
X131800000Y-101151471D02*
X133052571Y-99898900D01*
X124565500Y-98153129D02*
X124550000Y-98168629D01*
X121205600Y-72825000D02*
X121205600Y-93456100D01*
X124698900Y-99898900D02*
X129498900Y-99898900D01*
X133052571Y-99898900D02*
X134200000Y-99898900D01*
X124565500Y-96816000D02*
X124565500Y-98153129D01*
%TO.N,/BTN_2*%
X123186015Y-73534300D02*
X123109900Y-73534300D01*
X134126700Y-84474985D02*
X123186015Y-73534300D01*
X134126700Y-85126700D02*
X134126700Y-84474985D01*
X143078100Y-98684900D02*
X143078100Y-93446585D01*
X141382600Y-92382600D02*
X134126700Y-85126700D01*
X142703800Y-99059200D02*
X143078100Y-98684900D01*
X142014115Y-92382600D02*
X141382600Y-92382600D01*
X143078100Y-93446585D02*
X142014115Y-92382600D01*
%TO.N,/LORA_CS*%
X137794900Y-78000000D02*
X135276100Y-75481200D01*
X138000000Y-78400000D02*
X137794900Y-78194900D01*
X163815000Y-78400000D02*
X138000000Y-78400000D01*
X164835000Y-77380000D02*
X163815000Y-78400000D01*
X137794900Y-78194900D02*
X137794900Y-78000000D01*
%TO.N,/LORA_RST*%
X164835000Y-79920000D02*
X164355000Y-80400000D01*
X139091900Y-80200000D02*
X134615200Y-75723300D01*
X134615200Y-75723300D02*
X134615200Y-73033700D01*
X134615200Y-73033700D02*
X135295400Y-72353500D01*
X160761486Y-80400000D02*
X160561485Y-80200000D01*
X160561485Y-80200000D02*
X139091900Y-80200000D01*
X164355000Y-80400000D02*
X160761486Y-80400000D01*
%TO.N,/LORA_GO*%
X145035300Y-72281900D02*
X149317200Y-68000000D01*
X137105300Y-72277000D02*
X137110200Y-72281900D01*
X137110200Y-72281900D02*
X145035300Y-72281900D01*
X149317200Y-68000000D02*
X164055000Y-68000000D01*
X164055000Y-68000000D02*
X164835000Y-67220000D01*
%TO.N,/LORA_EN*%
X162915000Y-66600000D02*
X149949400Y-66600000D01*
X144869200Y-71680200D02*
X138790200Y-71680200D01*
X164835000Y-64680000D02*
X162915000Y-66600000D01*
X149949400Y-66600000D02*
X144869200Y-71680200D01*
%TO.N,/LORA_SCK*%
X156799100Y-69400000D02*
X153416200Y-72782900D01*
X164835000Y-69760000D02*
X164475000Y-69400000D01*
X153416200Y-72782900D02*
X139134900Y-72782900D01*
X139134900Y-72782900D02*
X138978700Y-72939100D01*
X164475000Y-69400000D02*
X156799100Y-69400000D01*
%TO.N,/LORA_G1*%
X136882000Y-62846400D02*
X127754800Y-62846400D01*
X127754800Y-62846400D02*
X126204700Y-64396500D01*
X139435000Y-60293400D02*
X136882000Y-62846400D01*
X139435000Y-59600000D02*
X139435000Y-60293400D01*
%TO.N,/LORA_MISO*%
X164835000Y-72300000D02*
X162701700Y-74433300D01*
X162701700Y-74433300D02*
X137117100Y-74433300D01*
%TO.N,/LORA_MOSI*%
X163899100Y-75775900D02*
X137125800Y-75775900D01*
X164835000Y-74840000D02*
X163899100Y-75775900D01*
%TO.N,/LORA_G3*%
X133808400Y-64680000D02*
X133711600Y-64776800D01*
X139435000Y-64680000D02*
X133808400Y-64680000D01*
%TO.N,Net-(J5-SHIELD)*%
X124845000Y-95520000D02*
X129025000Y-95520000D01*
X124845000Y-86880000D02*
X129025000Y-86880000D01*
%TO.N,Net-(J5-CC2)*%
X131005700Y-94093400D02*
X131005700Y-93573600D01*
X132056900Y-95144600D02*
X131005700Y-94093400D01*
X139837900Y-95144600D02*
X132056900Y-95144600D01*
X141599900Y-93382600D02*
X139837900Y-95144600D01*
%TD*%
M02*
