%TF.GenerationSoftware,KiCad,Pcbnew,8.0.1*%
%TF.CreationDate,2024-05-04T10:24:30-07:00*%
%TF.ProjectId,schematic,73636865-6d61-4746-9963-2e6b69636164,rev?*%
%TF.SameCoordinates,Original*%
%TF.FileFunction,Soldermask,Bot*%
%TF.FilePolarity,Negative*%
%FSLAX46Y46*%
G04 Gerber Fmt 4.6, Leading zero omitted, Abs format (unit mm)*
G04 Created by KiCad (PCBNEW 8.0.1) date 2024-05-04 10:24:30*
%MOMM*%
%LPD*%
G01*
G04 APERTURE LIST*
%ADD10C,0.900000*%
%ADD11R,0.850000X0.850000*%
%ADD12O,0.850000X0.850000*%
%ADD13C,0.650000*%
%ADD14O,2.100000X1.000000*%
%ADD15O,1.800000X1.000000*%
%ADD16R,1.700000X1.700000*%
%ADD17O,1.700000X1.700000*%
%ADD18R,1.050000X0.650000*%
%ADD19C,1.700000*%
G04 APERTURE END LIST*
D10*
%TO.C,S1*%
X125350000Y-98500000D03*
X125350000Y-105300000D03*
%TD*%
D11*
%TO.C,U4*%
X132600000Y-94400000D03*
D12*
X132600000Y-93400000D03*
X132600000Y-92400000D03*
X132600000Y-91400000D03*
X132600000Y-90400000D03*
X132600000Y-89400000D03*
%TD*%
D13*
%TO.C,J5*%
X128525000Y-88310000D03*
X128525000Y-94090000D03*
D14*
X129025000Y-86880000D03*
D15*
X124845000Y-86880000D03*
D14*
X129025000Y-95520000D03*
D15*
X124845000Y-95520000D03*
%TD*%
D16*
%TO.C,BT1*%
X129800000Y-83600000D03*
D17*
X127260000Y-83600000D03*
%TD*%
D16*
%TO.C,J3*%
X149550000Y-63050000D03*
D17*
X152090000Y-63050000D03*
X154630000Y-63050000D03*
X157170000Y-63050000D03*
%TD*%
D11*
%TO.C,J1*%
X149600000Y-87800000D03*
D12*
X150600000Y-87800000D03*
%TD*%
D16*
%TO.C,J4*%
X154650000Y-90780000D03*
D17*
X154650000Y-93320000D03*
X154650000Y-95860000D03*
X154650000Y-98400000D03*
%TD*%
D18*
%TO.C,SW1*%
X162925000Y-98675000D03*
X167075000Y-98675000D03*
X162925000Y-96525000D03*
X167050000Y-96525000D03*
%TD*%
D19*
%TO.C,U5*%
X164835000Y-59600000D03*
X164835000Y-62140000D03*
X164835000Y-64680000D03*
X164835000Y-67220000D03*
X164835000Y-69760000D03*
X164835000Y-72300000D03*
X164835000Y-74840000D03*
X164835000Y-77380000D03*
X164835000Y-79920000D03*
X139435000Y-59600000D03*
X139435000Y-62140000D03*
X139435000Y-64680000D03*
X139435000Y-67220000D03*
X139435000Y-69760000D03*
%TD*%
D18*
%TO.C,SW3*%
X162800000Y-91675000D03*
X166950000Y-91675000D03*
X162800000Y-89525000D03*
X166925000Y-89525000D03*
%TD*%
M02*
