M48
; DRILL file {KiCad 8.0.1} date 2024-05-04T10:24:33-0700
; FORMAT={-:-/ absolute / inch / decimal}
; #@! TF.CreationDate,2024-05-04T10:24:33-07:00
; #@! TF.GenerationSoftware,Kicad,Pcbnew,8.0.1
; #@! TF.FileFunction,Plated,1,2,PTH
FMAT,2
INCH
; #@! TA.AperFunction,Plated,PTH,ViaDrill
T1C0.0118
; #@! TA.AperFunction,Plated,PTH,ComponentDrill
T2C0.0197
; #@! TA.AperFunction,Plated,PTH,ComponentDrill
T3C0.0236
; #@! TA.AperFunction,Plated,PTH,ComponentDrill
T4C0.0394
%
G90
G05
T1
X4.7719Y-2.8671
X4.8252Y-3.1072
X4.8468Y-2.8951
X4.8473Y-2.7552
X4.8473Y-2.9486
X4.8734Y-2.6984
X4.8973Y-2.7486
X4.945Y-3.0696
X4.9687Y-2.5353
X5.0236Y-3.1654
X5.0479Y-3.3404
X5.062Y-2.9279
X5.0709Y-3.8268
X5.0866Y-3.1969
X5.1181Y-3.8583
X5.148Y-3.8346
X5.1496Y-3.1575
X5.1577Y-3.684
X5.1654Y-3.9449
X5.1753Y-3.2762
X5.189Y-3.4173
X5.2126Y-3.9921
X5.2283Y-3.4567
X5.2441Y-3.2205
X5.2598Y-3.8268
X5.2642Y-2.5503
X5.2755Y-2.953
X5.2835Y-3.933
X5.2913Y-3.1024
X5.2956Y-2.7328
X5.3228Y-3.1575
X5.3247Y-2.8892
X5.3258Y-2.9717
X5.3262Y-2.9303
X5.3265Y-2.7505
X5.3266Y-2.8486
X5.3474Y-3.4557
X5.3731Y-3.3986
X5.3858Y-3.3386
X5.3978Y-2.8456
X5.3983Y-2.9304
X5.3987Y-2.9833
X5.4173Y-3.3701
X5.4173Y-3.3701
X5.4331Y-3.4646
X5.4479Y-3.434
X5.4567Y-3.937
X5.4642Y-2.8221
X5.4716Y-2.8716
X5.4961Y-3.3937
X5.5184Y-3.0617
X5.5197Y-3.0079
X5.5254Y-2.8892
X5.5354Y-3.5276
X5.5433Y-3.7559
X5.5748Y-3.6765
X5.5748Y-3.8976
X5.6007Y-2.6347
X5.6092Y-3.6965
X5.6183Y-3.9
X5.7165Y-2.9597
X5.7874Y-3.4331
X5.7874Y-3.6063
X5.7953Y-4.1732
X5.8031Y-2.9541
X5.8373Y-3.2457
X5.8583Y-3.5354
X5.8583Y-4.1102
X5.8898Y-3.7008
X5.9606Y-3.5748
X6.2441Y-2.8139
X6.315Y-2.4409
X6.373Y-3.5829
X6.3734Y-3.8704
X6.4094Y-2.3543
X6.5215Y-3.2394
X6.537Y-3.9009
X6.5403Y-3.5787
T2
X5.2205Y-3.5197
X5.2205Y-3.5591
X5.2205Y-3.5984
X5.2205Y-3.6378
X5.2205Y-3.6772
X5.2205Y-3.7165
X5.8898Y-3.4567
X5.9291Y-3.4567
T4
X5.0102Y-3.2913
X5.1102Y-3.2913
X5.4896Y-2.3465
X5.4896Y-2.4465
X5.4896Y-2.5465
X5.4896Y-2.6465
X5.4896Y-2.7465
X5.8878Y-2.4823
X5.9878Y-2.4823
X6.0878Y-2.4823
X6.0886Y-3.574
X6.0886Y-3.674
X6.0886Y-3.774
X6.0886Y-3.874
X6.1878Y-2.4823
X6.4896Y-2.3465
X6.4896Y-2.4465
X6.4896Y-2.5465
X6.4896Y-2.6465
X6.4896Y-2.7465
X6.4896Y-2.8465
X6.4896Y-2.9465
X6.4896Y-3.0465
X6.4896Y-3.1465
T3
G00X4.9309Y-3.4205
M15
G01X4.8994Y-3.4205
M16
G05
G00X4.9309Y-3.7606
M15
G01X4.8994Y-3.7606
M16
G05
G00X5.1014Y-3.4205
M15
G01X5.0581Y-3.4205
M16
G05
G00X5.1014Y-3.7606
M15
G01X5.0581Y-3.7606
M16
G05
M30
